<svg width="210" height="49" viewBox="0 0 210 49" fill="none" xmlns="http://www.w3.org/2000/svg">
<path d="M18.9762 16.8462C19.8283 16.9338 20.6884 17.1329 21.5564 17.4395C22.4244 17.75 23.2088 18.1681 23.9136 18.6937C24.6184 19.2193 25.1917 19.8604 25.6337 20.6089C26.0757 21.3575 26.2947 22.2176 26.2947 23.1891C26.2071 24.4832 25.8328 25.4667 25.1718 26.1436C24.5109 26.8205 23.7185 27.3421 22.7907 27.7084C21.867 28.0747 20.8954 28.3534 19.8801 28.5446C18.8647 28.7357 17.9768 28.9786 17.2123 29.2732C15.8904 29.7749 15.0104 30.42 14.5684 31.2123C14.2141 31.9171 14.2658 32.7254 14.7237 33.6372C15.1776 34.549 15.9063 35.2817 16.9057 35.8391C17.933 36.4284 19.1395 36.7191 20.5211 36.7191C21.7555 36.7191 22.8584 36.4244 23.826 35.8391C24.7975 35.2498 25.6695 34.5092 26.45 33.6133C27.2264 32.7174 27.9352 31.71 28.5643 30.5952C29.1974 29.4803 29.7907 28.3773 30.3481 27.2903C30.9931 26.056 31.6501 24.8296 32.3111 23.6112C32.9721 22.3928 33.7366 21.3057 34.6046 20.3501C35.4726 19.3945 36.476 18.6181 37.6227 18.0128C38.7695 17.4116 40.1352 17.109 41.72 17.109C43.3047 17.109 44.6784 17.4315 45.8411 18.0805C46.9998 18.7256 47.9474 19.5777 48.684 20.6368C49.4167 21.696 49.9622 22.9144 50.3166 24.296C50.6709 25.6777 50.8461 27.1151 50.8461 28.6162C50.8461 29.6157 50.6749 30.7823 50.3405 32.1202C50.002 33.458 49.4724 34.7203 48.7557 35.9108C48.035 37.1013 47.1033 38.1087 45.9565 38.929C44.8098 39.7532 43.4281 40.1633 41.8155 40.1633C40.6967 40.1633 39.6773 39.9443 38.7536 39.5023C37.8298 39.0604 36.8941 38.6343 35.9544 38.2242L35.9106 44.3959C35.9106 45.0728 36.0659 45.7178 36.3725 46.335C36.6791 46.9522 37.1131 47.4658 37.6745 47.8759L38.1603 48.2303C38.2479 48.29 38.2718 48.3776 38.228 48.4931C38.1842 48.6086 38.1045 48.6683 37.9851 48.6683H27.525C27.4056 48.6683 27.3339 48.6086 27.306 48.4931C27.2782 48.3737 27.306 48.2861 27.3936 48.2303L27.8794 47.9197C28.4369 47.5096 28.8629 46.988 29.1576 46.3549C29.4522 45.7218 29.5995 45.0688 29.5995 44.3919V36.9421V32.7135C30.0096 31.9808 30.4198 31.2283 30.8339 30.4638C31.244 29.6993 31.6541 28.9348 32.0682 28.1703C32.6575 27.0235 33.2588 25.9246 33.8759 24.8654C34.4931 23.8063 35.1541 22.8546 35.8588 22.0026V22.4445V34.9154C35.8588 35.9745 36.1893 36.731 36.8503 37.185C37.5113 37.6389 38.3116 37.8698 39.2513 37.8698C40.2786 37.8698 41.1227 37.5553 41.7837 36.9222C42.4446 36.2891 42.9822 35.5126 43.3923 34.5849C43.8024 33.6611 44.0891 32.6617 44.2524 31.5866C44.4116 30.5155 44.4952 29.5241 44.4952 28.6123C44.4952 27.5252 44.4435 26.4024 44.34 25.2397C44.2364 24.081 44.0334 23.0139 43.7228 22.0424C43.4162 21.0708 42.9663 20.2785 42.377 19.6613C41.7877 19.0441 40.9953 18.7375 39.9959 18.7375C38.9367 18.7375 37.9692 19.06 37.0852 19.7051C36.2052 20.3501 35.397 21.1385 34.6603 22.0623C33.9237 22.986 33.2787 23.9735 32.7212 25.0167C32.1638 26.06 31.678 26.9797 31.2679 27.7721C30.4437 29.3887 29.5398 31.065 28.5563 32.7971C27.5728 34.5331 26.3902 36.0302 25.0086 37.2925C23.9494 38.2919 22.7987 39.0205 21.5484 39.4745C20.2982 39.9284 19.0439 40.1553 17.7817 40.1553C17.2521 40.1553 16.7146 40.1195 16.1731 40.0438C15.6276 39.9722 15.106 39.8448 14.6083 39.6696C12.5815 39.1121 10.949 38.1326 9.71469 36.739C8.48035 35.3454 7.63622 33.7646 7.1823 32.0007C6.7244 30.2368 6.6368 28.4092 6.9195 26.5139C7.19822 24.6186 7.83928 22.9223 8.83472 21.4252C9.83414 19.9281 11.184 18.7296 12.8881 17.8337C14.5963 16.9418 16.627 16.6113 18.9762 16.8462ZM13.2465 29.759C13.362 30.2886 13.5849 30.3483 13.9075 29.9342C14.2897 29.4046 14.7675 28.9507 15.3409 28.5685C15.9143 28.1862 16.4996 27.8119 17.1048 27.4456C17.7061 27.0793 18.3073 26.705 18.9125 26.3227C19.5138 25.9405 20.0354 25.5025 20.4773 25.0008C20.9193 24.5031 21.2538 23.9058 21.4927 23.217C21.7276 22.5281 21.7993 21.696 21.7117 20.7284C21.5365 19.8166 21.1463 19.1476 20.545 18.7216C19.9438 18.2955 19.2589 18.0845 18.4944 18.0845C17.9927 18.0845 17.4791 18.1721 16.9535 18.3473C15.8944 18.7296 15.0741 19.3587 14.4848 20.2426C13.8955 21.1226 13.4695 22.114 13.2067 23.217C12.9439 24.3199 12.8324 25.4507 12.8762 26.6094C12.916 27.7681 13.0394 28.8193 13.2465 29.759ZM27.1308 20.374L35.5483 16.9816C35.608 16.9218 35.6717 16.9218 35.7473 16.9816C35.819 17.0413 35.8588 17.113 35.8588 17.2006V17.9053C34.8594 18.4628 33.8441 19.5219 32.8168 21.0788C32.2872 21.8712 31.7457 22.783 31.1843 23.8103C30.6268 24.8376 30.0813 25.8688 29.5517 26.8961V24.738C29.5517 23.8859 29.3248 23.1055 28.8669 22.4007C28.413 21.696 27.7998 21.1505 27.0393 20.7722C26.9795 20.7125 26.9596 20.6488 26.9716 20.5731C26.9915 20.4975 27.0432 20.4337 27.1308 20.374Z" fill="#270A05"/>
<path d="M53.1752 20.4183L61.5926 16.982C61.7996 16.9223 61.8992 16.9979 61.8992 17.201L61.943 35.5808C61.943 37.0222 62.5163 38.1808 63.6631 39.0608L64.1488 39.4152C64.2364 39.4749 64.2643 39.5625 64.2364 39.678C64.2086 39.7935 64.1329 39.8532 64.0174 39.8532H53.5733C53.426 39.8532 53.3384 39.7935 53.3105 39.678C53.2827 39.5625 53.3105 39.4709 53.3981 39.4152L53.8839 39.1046C54.4413 38.6945 54.8754 38.1729 55.1859 37.5398C55.4925 36.9067 55.6478 36.2537 55.6478 35.5768L55.604 24.7345C55.604 23.8824 55.385 23.102 54.943 22.3972C54.5011 21.6924 53.8998 21.1629 53.1353 20.8085C53.0756 20.7488 53.0557 20.6771 53.0676 20.5895C53.0796 20.5059 53.1154 20.4461 53.1752 20.4183ZM54.8515 11.4275C54.8515 10.5157 55.174 9.73922 55.823 9.0902C56.4681 8.44516 57.2485 8.11865 58.1603 8.11865C59.1 8.11865 59.8924 8.44117 60.5414 9.0902C61.1864 9.73524 61.5129 10.5157 61.5129 11.4275C61.5129 12.3672 61.1904 13.1595 60.5414 13.8086C59.8963 14.4536 59.1159 14.7801 58.2041 14.7801C57.2644 14.7801 56.472 14.4576 55.823 13.8086C55.174 13.1595 54.8515 12.3672 54.8515 11.4275Z" fill="#270A05"/>
<path d="M77.4161 16.8027C78.4433 16.8027 79.4507 16.9739 80.4342 17.3084C81.4177 17.6469 82.3096 18.1446 83.102 18.8056C83.8944 19.4665 84.5394 20.2589 85.0411 21.1866C85.5388 22.1104 85.8056 23.1616 85.8335 24.3362C85.8335 24.4835 85.7897 24.5114 85.7021 24.4238L80.4143 22.6161C80.3864 22.5882 80.3705 22.5444 80.3705 22.4847C80.5776 22.0427 80.693 21.5649 80.7249 21.0513C80.7528 20.5376 80.6731 20.0678 80.482 19.6417C80.2909 19.2157 79.9803 18.8573 79.5582 18.5627C79.1322 18.268 78.5509 18.1207 77.8182 18.1207C76.7033 18.1207 75.7397 18.5826 74.9314 19.5103C74.1232 20.4341 73.5139 21.5888 73.1038 22.9705C72.6937 24.3521 72.5026 25.8413 72.5305 27.442C72.5583 29.0426 72.845 30.5358 73.3905 31.9174C73.932 33.2991 74.7642 34.4459 75.8791 35.3537C76.994 36.2655 78.4354 36.7194 80.1993 36.7194C81.2863 36.7194 82.3136 36.5283 83.2852 36.1461C84.2527 35.7638 85.0053 35.2502 85.5348 34.6051C85.71 34.4021 85.8852 34.2985 86.0644 34.2985C86.2993 34.2985 86.4745 34.4021 86.594 34.6051C86.7095 34.8122 86.6657 35.063 86.4626 35.3537C85.2561 37.03 83.8904 38.2325 82.3654 38.9691C80.8364 39.7057 79.2795 40.0721 77.6948 40.0721C76.2852 40.0721 74.9115 39.8013 73.5737 39.2558C72.2358 38.7143 71.0532 37.9538 70.0259 36.9862C68.9986 36.0147 68.1585 34.856 67.5135 33.5062C66.8684 32.1564 66.514 30.6712 66.4543 29.0546C66.4264 27.4659 66.6614 25.9408 67.1591 24.4716C67.6568 23.0023 68.3855 21.7082 69.3411 20.5934C70.2967 19.4785 71.4633 18.5746 72.845 17.8818C74.2107 17.1929 75.7397 16.8346 77.4161 16.8027Z" fill="#270A05"/>
<path d="M137.087 19.5341C137.147 19.6496 137.198 19.777 137.242 19.9084C137.286 20.0398 137.222 20.1513 137.043 20.2389L133.826 21.8714C133.651 21.959 133.519 22.0028 133.428 22.0028C133.34 22.0028 133.237 21.9152 133.121 21.74C132.297 20.4778 131.297 19.9044 130.123 20.0199C128.948 20.1394 127.61 20.665 126.113 21.6086C125.496 21.9909 124.871 22.393 124.238 22.8191C123.605 23.2451 123.003 23.6513 122.43 24.0295C121.857 24.4118 121.335 24.7662 120.865 25.0887C120.395 25.4112 120.013 25.6899 119.718 25.9248C118.484 26.8645 117.258 27.8281 116.039 28.8116C114.821 29.7951 113.595 30.7746 112.36 31.7422C111.715 32.2717 111.006 32.865 110.246 33.526C109.481 34.187 108.689 34.84 107.865 35.485C107.041 36.1301 106.228 36.7393 105.42 37.3126C104.612 37.886 103.827 38.3638 103.063 38.7461C101.828 39.3632 100.53 39.7734 99.1647 39.9804C97.799 40.1875 96.5407 40.0839 95.398 39.6738C94.2512 39.2637 93.3036 38.4912 92.555 37.3604C91.8064 36.2296 91.4322 34.621 91.4322 32.5345L91.3884 24.7343C91.3884 23.8822 91.1694 23.1018 90.7274 22.397C90.2854 21.6922 89.6842 21.1627 88.9197 20.8083C88.86 20.7486 88.8361 20.6769 88.852 20.5893C88.8679 20.5017 88.9037 20.442 88.9635 20.4141L97.3809 16.9779C97.5879 16.9181 97.6875 16.9938 97.6875 17.1969L97.7313 32.5345C97.7313 33.3588 97.8866 34.0755 98.1932 34.6926C98.4998 35.3098 98.882 35.8115 99.3399 36.1898C99.7938 36.572 100.307 36.8428 100.881 37.006C101.454 37.1693 102.02 37.2051 102.577 37.1175C103.135 37.0299 103.875 36.7074 104.803 36.146C105.731 35.5885 106.674 34.9435 107.646 34.2069C108.613 33.4742 109.533 32.7535 110.401 32.0488C111.269 31.344 111.922 30.8144 112.36 30.4601C113.595 29.4925 114.821 28.513 116.039 27.5295C117.258 26.546 118.484 25.5824 119.718 24.6427C120.571 23.9977 121.554 23.3049 122.673 22.5722C123.788 21.8396 124.923 21.0751 126.065 20.2787C126.742 19.8089 127.336 19.3828 127.849 19.0006C128.363 18.6183 128.865 18.2958 129.346 18.029C129.832 17.7662 130.322 17.5512 130.824 17.388C131.321 17.2287 131.867 17.1331 132.452 17.1013C133.069 17.0734 133.611 17.1172 134.085 17.2327C134.554 17.3521 134.965 17.5194 135.319 17.7384C135.669 17.9574 135.988 18.2241 136.267 18.5307C136.553 18.8533 136.824 19.1837 137.087 19.5341ZM106.061 24.7343C106.061 23.8822 105.842 23.1018 105.4 22.397C104.958 21.6922 104.357 21.1627 103.592 20.8083C103.533 20.7486 103.513 20.6769 103.525 20.5893C103.541 20.5017 103.576 20.442 103.636 20.4141L112.054 16.9779C112.261 16.9181 112.36 16.9938 112.36 17.1969V29.3173C111.154 30.257 109.987 31.1847 108.856 32.0926C107.725 33.0044 106.69 33.7968 105.751 34.4737C105.898 34.0914 106.001 33.6096 106.061 33.0203C106.121 32.5783 106.121 32.1523 106.061 31.7422V24.7343ZM112.452 32.8451C112.567 33.522 112.842 34.1392 113.268 34.6966C113.694 35.2541 114.232 35.696 114.877 36.0186C114.936 36.0783 114.956 36.15 114.944 36.2376C114.928 36.3252 114.877 36.3849 114.789 36.4128L106.415 39.849C106.181 39.9087 106.065 39.8331 106.065 39.63V38.1329V37.8701C106.83 37.3126 107.702 36.6357 108.685 35.8434C109.669 35.051 110.764 34.1671 111.97 33.1995C112.058 33.1398 112.137 33.084 112.213 33.0243C112.281 32.9646 112.364 32.9048 112.452 32.8451ZM119.591 23.6791C119.591 23.5915 119.547 23.4283 119.46 23.1934C119.372 22.9584 119.233 22.6956 119.042 22.401C118.85 22.1063 118.608 21.8197 118.313 21.5409C118.018 21.2622 117.668 21.0193 117.254 20.8123C117.194 20.7526 117.174 20.6809 117.186 20.5933C117.202 20.5057 117.238 20.446 117.298 20.4181L125.715 16.9818C125.918 16.9221 126.022 16.9978 126.022 17.2008C126.022 17.5234 126.03 17.8618 126.045 18.2162C126.061 18.5666 126.065 18.905 126.065 19.2275C125.476 19.5501 124.811 19.9562 124.059 20.438C123.306 20.9198 122.45 21.517 121.478 22.2218C121.184 22.4289 120.877 22.6638 120.555 22.9266C120.236 23.1934 119.914 23.4442 119.591 23.6791ZM128.275 39.411C128.363 39.4707 128.391 39.5583 128.363 39.6738C128.335 39.7893 128.243 39.849 128.1 39.849H117.7C117.552 39.849 117.465 39.7893 117.437 39.6738C117.405 39.5583 117.437 39.4668 117.525 39.411L118.01 39.1004C119.157 38.2205 119.73 37.0459 119.73 35.5766V27.0278C120.32 26.5579 120.897 26.108 121.47 25.682C122.044 25.2559 122.593 24.8538 123.123 24.4715C123.8 23.9738 124.385 23.5676 124.887 23.2611C125.385 22.9545 125.842 22.6797 126.253 22.4448C126.105 22.827 126.034 23.2093 126.034 23.5915C126.034 25.6182 126.042 27.6171 126.057 29.5841C126.073 31.5511 126.065 33.5499 126.034 35.5766C126.034 36.2535 126.189 36.8985 126.495 37.5157C126.802 38.1329 127.236 38.6465 127.793 39.0566L128.275 39.411Z" fill="#270A05"/>
<path d="M150.792 16.846C151.645 16.9336 152.505 17.1327 153.373 17.4393C154.241 17.7498 155.025 18.1679 155.73 18.6935C156.435 19.2231 157.008 19.8602 157.45 20.6087C157.892 21.3573 158.111 22.2174 158.111 23.1889C158.023 24.483 157.649 25.4665 156.988 26.1434C156.327 26.8203 155.535 27.3419 154.607 27.7082C153.683 28.0745 152.712 28.3532 151.696 28.5444C150.685 28.7355 149.793 28.9784 149.029 29.273C147.707 29.7747 146.823 30.4198 146.385 31.2121C146.09 31.7696 146.098 32.3589 146.409 32.976C146.715 33.5932 147.201 34.1666 147.862 34.6962C148.523 35.2257 149.307 35.6597 150.219 35.9982C151.131 36.3366 152.071 36.5039 153.038 36.5039C153.89 36.5039 154.714 36.3486 155.507 36.042C156.299 35.7354 156.992 35.1979 157.577 34.4334C157.725 34.1984 157.916 34.079 158.151 34.079C158.298 34.079 158.437 34.1387 158.569 34.2542C158.7 34.3736 158.768 34.517 158.768 34.6962C158.74 34.8435 158.688 34.9669 158.613 35.0704C158.541 35.174 158.473 35.2855 158.413 35.4009C157.239 37.0772 155.881 38.2797 154.336 39.0164C152.795 39.749 151.23 40.1193 149.642 40.1193C147.675 40.0914 145.975 39.7171 144.553 38.9964C143.128 38.2758 141.961 37.344 141.049 36.1973C140.137 35.0505 139.484 33.7525 139.09 32.2952C138.696 30.8378 138.533 29.3646 138.604 27.8675C138.676 26.3703 139.002 24.921 139.576 23.5274C140.149 22.1338 140.942 20.9074 141.957 19.8482C142.972 18.7891 144.219 17.9848 145.704 17.4233C147.189 16.8619 148.885 16.6708 150.792 16.846ZM145.067 29.7588C145.182 30.2884 145.405 30.3481 145.728 29.934C146.11 29.4044 146.588 28.9505 147.161 28.5683C147.734 28.186 148.32 27.8117 148.925 27.4454C149.526 27.0791 150.131 26.7048 150.733 26.3225C151.334 25.9403 151.856 25.5023 152.298 25.0006C152.739 24.5029 153.078 23.9056 153.313 23.2168C153.548 22.5279 153.619 21.6958 153.532 20.7282C153.357 19.8164 152.966 19.1474 152.365 18.7214C151.764 18.2953 151.079 18.0843 150.315 18.0843C149.813 18.0843 149.303 18.1719 148.774 18.3471C147.715 18.7294 146.894 19.3585 146.305 20.2424C145.716 21.1224 145.294 22.1138 145.027 23.2168C144.764 24.3197 144.653 25.4505 144.696 26.6092C144.732 27.7679 144.86 28.8191 145.067 29.7588Z" fill="#270A05"/>
<path d="M192.99 37.5153C193.301 38.1325 193.731 38.6461 194.292 39.0562L194.734 39.4106C194.85 39.4703 194.889 39.5579 194.846 39.6734C194.802 39.7889 194.722 39.8486 194.603 39.8486H184.155C184.035 39.8486 183.964 39.7889 183.936 39.6734C183.908 39.5579 183.936 39.4664 184.023 39.4106L184.465 39.1C185.023 38.6899 185.457 38.1763 185.763 37.5591C186.074 36.9419 186.225 36.281 186.225 35.5762V24.7339C186.225 24.2362 186.153 23.7584 186.006 23.3005C185.859 22.8465 185.648 22.4802 185.365 22.1975C185.086 21.9188 184.74 21.7356 184.33 21.648C183.92 21.5604 183.45 21.6321 182.92 21.867C182.068 22.2214 181.005 22.6514 179.723 23.1651C178.445 23.6787 177.115 24.2601 175.733 24.9051C174.352 25.5501 172.978 26.2549 171.612 27.0194C170.246 27.7839 169.048 28.5922 168.021 29.4443C166.993 30.2964 166.205 31.1923 165.663 32.132C165.118 33.0717 164.967 34.0273 165.202 34.9948C165.436 35.7872 165.922 36.4044 166.655 36.8464C167.387 37.2883 168.14 37.4795 168.905 37.4197C169.669 37.36 170.35 36.9937 170.955 36.3168C171.556 35.6399 171.859 34.5967 171.859 33.1871V28.5245C171.859 28.3175 171.875 28.1064 171.903 27.8834C171.931 27.6645 172.154 27.4494 172.564 27.2424C172.771 27.1548 173.069 27.0314 173.468 26.8681C173.866 26.7049 174.32 26.5137 174.833 26.2947C175.347 26.0757 175.885 25.8488 176.442 25.6099C176.999 25.3749 177.545 25.14 178.075 24.9051C178.102 25.1122 178.126 25.3152 178.142 25.5223C178.158 25.7293 178.166 25.9483 178.166 26.1832V32.6177C178.166 33.7366 178.262 34.6365 178.453 35.3293C178.644 36.0182 178.879 36.5199 179.158 36.8265C179.436 37.137 179.747 37.2764 180.085 37.2445C180.424 37.2167 180.722 37.0693 180.989 36.8026C181.136 36.6552 181.296 36.5756 181.475 36.5597C181.65 36.5437 181.797 36.5836 181.917 36.6712C182.032 36.7588 182.108 36.8902 182.136 37.0693C182.164 37.2445 182.108 37.4197 181.961 37.5989C181.551 38.1564 180.953 38.7019 180.177 39.2274C179.396 39.757 178.497 40.0198 177.465 40.0198C176.613 40.0198 175.737 39.8287 174.841 39.4464C173.945 39.0642 173.217 38.3873 172.659 37.4197C172.512 37.1251 172.381 36.9857 172.261 37.0016C172.142 37.0176 172.01 37.0972 171.863 37.2445C170.895 38.1842 169.82 38.889 168.646 39.3588C167.471 39.8287 166.324 40.0477 165.209 40.0198C164.592 40.0198 163.959 39.8964 163.314 39.6455C162.669 39.3947 162.096 39.0363 161.594 38.5665C161.096 38.0966 160.682 37.5233 160.36 36.8464C160.037 36.1695 159.874 35.393 159.874 34.5091C159.874 33.5097 160.228 32.57 160.933 31.69C161.638 30.81 162.55 29.9778 163.665 29.2014C164.779 28.425 166.022 27.7043 167.387 27.0433C168.753 26.3823 170.099 25.797 171.421 25.2794C172.743 24.7657 173.969 24.3078 175.1 23.9136C176.231 23.5155 177.107 23.2009 177.724 22.966L192.226 16.9735C192.429 16.9137 192.532 16.9894 192.532 17.1925C192.532 17.5747 192.532 17.8893 192.532 18.1401C192.532 18.391 192.548 18.7055 192.576 19.0878C192.576 19.2948 192.592 19.5019 192.62 19.7049C192.648 19.912 192.735 20.0275 192.883 20.0593C193.03 20.0593 193.197 19.9916 193.388 19.8602C193.579 19.7288 193.747 19.6014 193.894 19.4859C194.921 18.809 196.032 18.2596 197.223 17.8335C198.413 17.4075 199.58 17.1925 200.727 17.1925C201.607 17.1925 202.439 17.3239 203.215 17.5906C203.992 17.8574 204.677 18.2874 205.266 18.8927C205.851 19.4939 206.325 20.2823 206.675 21.2499C207.03 22.2214 207.205 23.408 207.205 24.8175V35.5722C207.205 36.2491 207.36 36.8941 207.667 37.5113C207.973 38.1285 208.396 38.6421 208.921 39.0522L209.407 39.4066C209.494 39.4664 209.522 39.5539 209.494 39.6694C209.467 39.7849 209.391 39.8446 209.275 39.8446H198.831C198.712 39.8446 198.64 39.7849 198.612 39.6694C198.58 39.5539 198.612 39.4624 198.7 39.4066L199.142 39.0961C199.699 38.6859 200.133 38.1643 200.44 37.5312C200.747 36.8981 200.902 36.2451 200.902 35.5682V24.8255C200.902 23.9734 200.695 23.2168 200.285 22.5559C199.875 21.8949 199.361 21.3733 198.744 20.991C198.127 20.6088 197.458 20.3818 196.737 20.3062C196.016 20.2345 195.347 20.3659 194.73 20.7044C194.113 21.0428 193.599 21.6082 193.185 22.4006C192.771 23.1929 192.568 24.268 192.568 25.6178L192.524 35.5762C192.528 36.2531 192.684 36.8981 192.99 37.5153ZM166.173 23.7663C166.289 23.6509 166.348 23.5593 166.348 23.5035C166.408 22.2692 166.583 21.2698 166.878 20.5053C167.172 19.7408 167.539 19.1754 167.981 18.809C168.423 18.4427 168.885 18.2596 169.37 18.2596C169.856 18.2596 170.302 18.4427 170.716 18.809C171.126 19.1754 171.473 19.697 171.751 20.3739C172.03 21.0508 172.17 21.8591 172.17 22.7988V23.5911C172.17 23.826 172.126 24.061 172.038 24.2959L177.856 22.1378C177.179 20.4615 176.127 19.1913 174.706 18.3273C173.28 17.4592 171.6 17.0292 169.661 17.0292C168.279 17.0292 167.069 17.2562 166.026 17.7101C164.983 18.164 164.079 18.813 163.314 19.6492C162.55 20.4854 161.925 21.4848 161.443 22.6475C160.957 23.8101 160.599 25.0922 160.364 26.5058C160.336 26.6212 160.356 26.7128 160.431 26.7686C160.503 26.8283 160.587 26.8283 160.674 26.7686L166.173 23.7663Z" fill="#270A05"/>
<path d="M22.6561 16.5919C22.4251 16.4924 22.1942 16.4008 21.9553 16.3172C21.0037 15.9747 20.0441 15.7557 19.0964 15.6562C18.5708 15.6044 18.0532 15.5766 17.5555 15.5766C15.6124 15.5766 13.8564 15.9827 12.3394 16.779C10.464 17.7665 8.95092 19.1084 7.84798 20.7648C7.67676 21.0196 7.51749 21.2824 7.37017 21.5492L5.47884 15.5527C5.82127 15.5009 6.1637 15.4292 6.50214 15.3217C7.62102 14.9673 8.60849 14.3382 9.39289 13.4941C10.6511 13.7012 11.9332 13.6096 13.1636 13.2194C14.3979 12.8292 15.5009 12.1682 16.4127 11.2803C17.5395 11.5192 18.7102 11.4674 19.8251 11.117C20.1675 11.0095 20.49 10.8701 20.8006 10.7148L22.6561 16.5919Z" fill="#270A05"/>
<path d="M16.6474 1.04694C16.1457 1.20621 15.6917 1.44113 15.2856 1.73578C13.6889 0.210773 11.3357 -0.418343 9.08205 0.290407C6.82838 0.999158 5.26355 2.87058 4.83352 5.03267C4.3358 5.0247 3.82614 5.09239 3.32444 5.25166C0.819922 6.04403 -0.569708 8.7118 0.22266 11.2163C1.01503 13.7208 3.6828 15.1105 6.18732 14.3181C7.37388 13.9438 8.3056 13.1435 8.87898 12.1401C10.1173 12.5781 11.499 12.6418 12.8488 12.2157C14.1986 11.7897 15.2936 10.9456 16.0541 9.87447C17.0973 10.3682 18.3197 10.4877 19.5102 10.1134C22.0148 9.32101 23.4044 6.65324 22.612 4.14872C21.8197 1.6442 19.1519 0.254572 16.6474 1.04694Z" fill="#270A05"/>
</svg>
